<?xml version="1.0" encoding="utf-8"?>
<!-- Generator: Adobe Illustrator 27.0.0, SVG Export Plug-In . SVG Version: 6.00 Build 0)  -->
<svg version="1.1" id="Layer_1" xmlns="http://www.w3.org/2000/svg" xmlns:xlink="http://www.w3.org/1999/xlink" x="0px" y="0px"
	 viewBox="0 0 526 219" style="enable-background:new 0 0 526 219;" xml:space="preserve">
<style type="text/css">
	.st0{fill:#FFFFFF;}
	.st1{fill:#231F20;}
</style>
<polygon class="st0" points="485,33.95 376.37,181.86 39.98,181.85 148.57,34 "/>
<g>
	<g>
		<g>
			<g>
				<path class="st1" d="M291.43,150.11h-7.1c0,0,0.31-2.65-0.21-4.49h-1.88v-0.92c0-1.66-0.83-2.47-2.92-2.35
					c-0.78,0.05-6.85,0.45-13.72,0.91c-9.81,0.66-21.26,1.44-21.26,1.44v-7.86h39.56c0,0,0,0.01,0,0.01c0,0.22,0.18,0.4,0.41,0.4
					c0.23,0,0.41-0.18,0.41-0.4c0,0,0-0.01,0-0.01h17.81c15,0,29.06,1.45,36.4,9.09C338.94,145.93,325.89,150.11,291.43,150.11"/>
			</g>
			<g>
				<g>
					<path class="st1" d="M158.46,146.24l0.81-0.96c0.73,0.64,1.47,1,2.42,1c0.83,0,1.36-0.38,1.36-0.96v-0.02
						c0-0.55-0.31-0.84-1.73-1.17c-1.63-0.39-2.55-0.88-2.55-2.29v-0.02c0-1.31,1.09-2.22,2.62-2.22c1.12,0,2,0.34,2.78,0.96
						l-0.72,1.02c-0.69-0.52-1.38-0.79-2.08-0.79c-0.79,0-1.25,0.4-1.25,0.91v0.02c0,0.59,0.35,0.85,1.82,1.2
						c1.62,0.39,2.46,0.97,2.46,2.24v0.02c0,1.43-1.13,2.29-2.74,2.29C160.49,147.47,159.38,147.06,158.46,146.24z"/>
					<path class="st1" d="M165.87,144.11v-4.41h1.35v4.36c0,1.42,0.73,2.19,1.94,2.19c1.19,0,1.93-0.72,1.93-2.14v-4.41h1.35v4.35
						c0,2.29-1.29,3.44-3.3,3.44C167.14,147.48,165.87,146.33,165.87,144.11z"/>
					<path class="st1" d="M173.76,146.24l0.81-0.96c0.73,0.64,1.47,1,2.42,1c0.83,0,1.36-0.38,1.36-0.96v-0.02
						c0-0.55-0.31-0.84-1.73-1.17c-1.63-0.39-2.55-0.88-2.55-2.29v-0.02c0-1.31,1.09-2.22,2.62-2.22c1.12,0,2,0.34,2.78,0.96
						l-0.72,1.02c-0.69-0.52-1.38-0.79-2.08-0.79c-0.79,0-1.25,0.4-1.25,0.91v0.02c0,0.59,0.35,0.85,1.82,1.2
						c1.62,0.39,2.46,0.97,2.46,2.24v0.02c0,1.43-1.13,2.29-2.74,2.29C175.79,147.47,174.69,147.06,173.76,146.24z"/>
					<path class="st1" d="M181.29,139.69h1.35v3.19h3.66v-3.19h1.35v7.67h-1.35v-3.23h-3.66v3.23h-1.35V139.69z"/>
					<path class="st1" d="M189.69,139.69h1.35v7.67h-1.35V139.69z"/>
					<path class="st1" d="M196.04,143.55v-0.02c0-2.15,1.64-3.96,3.95-3.96c1.34,0,2.16,0.37,2.95,1.04l-0.85,1.02
						c-0.59-0.5-1.17-0.82-2.15-0.82c-1.41,0-2.49,1.24-2.49,2.7v0.02c0,1.58,1.04,2.74,2.61,2.74c0.72,0,1.38-0.23,1.85-0.58v-1.43
						h-1.96v-1.17h3.26v3.22c-0.76,0.65-1.84,1.19-3.2,1.19C197.61,147.49,196.04,145.78,196.04,143.55z"/>
					<path class="st1" d="M204.96,139.69h3.42c0.96,0,1.72,0.28,2.21,0.77c0.41,0.42,0.64,0.99,0.64,1.65v0.02
						c0,1.26-0.76,2.01-1.83,2.32l2.07,2.9h-1.59l-1.88-2.67h-0.02h-1.66v2.67h-1.35V139.69z M208.28,143.49
						c0.96,0,1.58-0.5,1.58-1.28v-0.02c0-0.82-0.59-1.27-1.59-1.27h-1.96v2.57H208.28z"/>
					<path class="st1" d="M215.6,139.64h1.25l3.37,7.72h-1.42l-0.78-1.85h-3.62l-0.79,1.85h-1.38L215.6,139.64z M217.53,144.32
						l-1.32-3.07l-1.31,3.07H217.53z"/>
					<path class="st1" d="M221.54,139.69h2.86c2.41,0,4.07,1.65,4.07,3.81v0.02c0,2.16-1.66,3.83-4.07,3.83h-2.86V139.69z
						 M224.39,146.13c1.61,0,2.66-1.08,2.66-2.58v-0.02c0-1.5-1.05-2.61-2.66-2.61h-1.51v5.21H224.39z"/>
					<path class="st1" d="M230.1,139.69h5.68v1.2h-4.34v1.99h3.84v1.2h-3.84v2.06h4.39v1.2h-5.74V139.69z"/>
				</g>
			</g>
		</g>
		<g>
			<g>
				<path class="st1" d="M166.34,126.8h-7.93V71.94h32.73v7.93h-24.8v15.46h21.97v8h-21.97V126.8z"/>
				<path class="st1" d="M208.07,98.94h9.26c6.67,0,9.97-4.79,9.97-9.57c0-4.71-3.3-9.5-9.97-9.5h-12.17v46.93h-7.85V71.86h20.01
					c11.93,0,17.89,8.79,17.89,17.5c0,7.77-4.79,15.15-14.21,16.79l17.34,20.64h-10.28l-20.01-24.09V98.94z"/>
				<path class="st1" d="M299.46,71.94l14.99,24.09l14.99-24.09h9.42l-20.41,32.49v22.37h-8v-22.37l-20.33-32.49H299.46z"/>
				<path class="st1" d="M361.17,110.89h-19.38c-2.08,4.94-4.79,11.43-6.49,15.91h-8.42l21.7-54.74h5.71L376,126.8h-8.34
					L361.17,110.89z M344.73,103.56h13.44l-6.64-19.07L344.73,103.56z"/>
				<path class="st1" d="M286.82,79.47c-5.1-5.1-12.09-8.32-19.86-8.32c-7.69,0-14.76,3.22-19.78,8.32
					c-4.94,5.1-8.16,12.09-8.16,19.86c0,7.77,3.22,14.75,8.16,19.86c5.02,5.18,12.09,8.32,19.78,8.32c7.77,0,14.75-3.14,19.86-8.32
					c4.94-5.1,8.16-12.09,8.16-19.86C294.98,91.56,291.76,84.58,286.82,79.47z M281.16,113.54c-3.69,3.69-8.79,5.97-14.2,5.97
					c-4.44,0-8.61-1.53-11.96-4.11l24.11-24.11l-3.93-3.93l-24.1,24.1c-2.54-3.35-4.06-7.55-4.06-12.11
					c0-5.57,2.28-10.59,5.89-14.21c3.61-3.69,8.63-5.96,14.05-5.96c5.41,0,10.52,2.28,14.2,5.96c3.53,3.61,5.81,8.56,5.81,14.21
					C286.97,104.98,284.7,109.93,281.16,113.54z"/>
			</g>
		</g>
	</g>
</g>
<path class="st1" d="M362.64,76.77v-0.03c0-2.57,2.09-4.74,4.71-4.74c2.65,0,4.71,2.14,4.71,4.71v0.03c0,2.57-2.09,4.74-4.71,4.74
	C364.7,81.48,362.64,79.34,362.64,76.77z M371.53,76.74v-0.03c0-2.3-1.79-4.2-4.17-4.2c-2.36,0-4.17,1.92-4.17,4.23v0.03
	c0,2.3,1.79,4.2,4.17,4.2C369.71,80.97,371.53,79.04,371.53,76.74z M365.51,74.25h2.17c1.06,0,1.84,0.51,1.84,1.52
	c0,0.78-0.46,1.27-1.11,1.46l1.27,1.81h-1.11l-1.14-1.65h-1v1.65h-0.92V74.25z M367.6,76.63c0.62,0,0.97-0.32,0.97-0.79
	c0-0.51-0.35-0.78-0.97-0.78h-1.16v1.57H367.6z"/>
</svg>
